<?xml version="1.0" standalone="no"?><!-- Generator: Gravit.io --><svg xmlns="http://www.w3.org/2000/svg" xmlns:xlink="http://www.w3.org/1999/xlink" style="isolation:isolate" viewBox="0 0 1600 700" width="1600" height="700"><defs><clipPath id="_clipPath_94S4yiWMSIeMxxNW7AnclCQwqaLgeOZr"><rect width="1600" height="700"/></clipPath></defs><g clip-path="url(#_clipPath_94S4yiWMSIeMxxNW7AnclCQwqaLgeOZr)"><g><g><linearGradient id="_lgradient_0" x1="0.00014558637670773408" y1="0.5003143414811485" x2="1.0003716965021112" y2="0.5003143414811485" gradientTransform="matrix(139.041,0,0,170.851,1.05,97.169)" gradientUnits="userSpaceOnUse"><stop offset="0.00000750081%" stop-opacity="1" style="stop-color:rgb(255,193,7)"/><stop offset="100%" stop-opacity="1" style="stop-color:rgb(222,68,55)"/></linearGradient><path d=" M 128.918 262.736 L 128.918 262.736 C 116.791 271.742 99.513 268.907 90.542 256.732 L 6.313 140.981 C -2.658 128.805 0.166 111.46 12.294 102.453 L 12.294 102.453 C 24.421 93.446 41.699 96.282 50.67 108.457 L 134.899 224.208 C 143.704 236.55 141.046 253.896 128.918 262.736 Z " fill="url(#_lgradient_0)"/></g><g><linearGradient id="_lgradient_1" x1="0.00014558637670773408" y1="0.5003143414811485" x2="1.0003716965021112" y2="0.5003143414811485" gradientTransform="matrix(139.041,0,0,170.851,780.959,372.149)" gradientUnits="userSpaceOnUse"><stop offset="0.00000750081%" stop-opacity="1" style="stop-color:rgb(255,193,7)"/><stop offset="100%" stop-opacity="1" style="stop-color:rgb(222,68,55)"/></linearGradient><path d=" M 908.828 537.716 L 908.828 537.716 C 896.7 546.722 879.422 543.887 870.451 531.712 L 786.222 415.961 C 777.251 403.785 780.076 386.439 792.203 377.433 L 792.203 377.433 C 804.331 368.426 821.609 371.262 830.58 383.437 L 914.809 499.188 C 923.614 511.53 920.955 528.876 908.828 537.716 Z " fill="url(#_lgradient_1)"/></g><g><linearGradient id="_lgradient_2" x1="-0.001541708650718121" y1="0.5005621920653475" x2="0.9997583818754965" y2="0.5005621920653475" gradientTransform="matrix(107.412,0,0,132.02,608.496,0)" gradientUnits="userSpaceOnUse"><stop offset="0.00000750081%" stop-opacity="1" style="stop-color:rgb(55,125,255)"/><stop offset="100%" stop-opacity="1" style="stop-color:rgb(0,223,252)"/></linearGradient><path d=" M 707.224 127.972 L 707.224 127.972 C 697.754 134.81 684.464 132.808 677.652 123.301 L 612.528 33.737 C 605.717 24.23 607.711 10.887 617.18 4.048 L 617.18 4.048 C 626.65 -2.79 639.94 -0.789 646.752 8.718 L 711.875 98.283 C 718.687 107.79 716.693 121.133 707.224 127.972 Z " fill="url(#_lgradient_2)"/></g><linearGradient id="_lgradient_3" x1="0" y1="0.49922608695652126" x2="1" y2="0.49922608695652126" gradientTransform="matrix(38.21,0,0,38.361,1448.79,163.414)" gradientUnits="userSpaceOnUse"><stop offset="0.00000750081%" stop-opacity="1" style="stop-color:rgb(55,125,255)"/><stop offset="100%" stop-opacity="1" style="stop-color:rgb(0,223,252)"/></linearGradient><ellipse vector-effect="non-scaling-stroke" cx="1467.8948258070197" cy="182.59445787883107" rx="19.10517419298003" ry="19.180576865950826" fill="url(#_lgradient_3)"/><linearGradient id="_lgradient_4" x1="0" y1="0.49922608695652126" x2="1" y2="0.49922608695652126" gradientTransform="matrix(38.21,0,0,38.361,1209.79,311.639)" gradientUnits="userSpaceOnUse"><stop offset="0.00000750081%" stop-opacity="1" style="stop-color:rgb(55,125,255)"/><stop offset="100%" stop-opacity="1" style="stop-color:rgb(0,223,252)"/></linearGradient><ellipse vector-effect="non-scaling-stroke" cx="1228.89482580702" cy="330.8194231340492" rx="19.10517419298003" ry="19.180576865950798" fill="url(#_lgradient_4)"/><linearGradient id="_lgradient_5" x1="0" y1="0.4993862068965509" x2="1" y2="0.4993862068965509" gradientTransform="matrix(48.178,0,0,48.368,0,505.412)" gradientUnits="userSpaceOnUse"><stop offset="0.00000750081%" stop-opacity="1" style="stop-color:rgb(255,193,7)"/><stop offset="100%" stop-opacity="1" style="stop-color:rgb(222,68,55)"/></linearGradient><ellipse vector-effect="non-scaling-stroke" cx="24.089132678105297" cy="529.5961115276194" rx="24.089132678105322" ry="24.184205613590166" fill="url(#_lgradient_5)"/><g><linearGradient id="_lgradient_6" x1="-0.001541708650717677" y1="0.5005621920653471" x2="0.999758381875496" y2="0.5005621920653471" gradientTransform="matrix(107.412,0,0,132.02,272,529.596)" gradientUnits="userSpaceOnUse"><stop offset="0.00000750081%" stop-opacity="1" style="stop-color:rgb(55,125,255)"/><stop offset="100%" stop-opacity="1" style="stop-color:rgb(0,223,252)"/></linearGradient><path d=" M 370.728 657.568 L 370.728 657.568 C 361.258 664.406 347.968 662.404 341.156 652.898 L 276.032 563.333 C 269.221 553.826 271.215 540.483 280.684 533.644 L 280.684 533.644 C 290.154 526.806 303.444 528.808 310.256 538.314 L 375.379 627.879 C 382.191 637.386 380.197 650.729 370.728 657.568 Z " fill="url(#_lgradient_6)"/></g><g><linearGradient id="_lgradient_7" x1="0.00014558637670702979" y1="0.5003143414811482" x2="1.0003716965021106" y2="0.5003143414811482" gradientTransform="matrix(139.041,0,0,170.851,1379.269,476.149)" gradientUnits="userSpaceOnUse"><stop offset="0.00000750081%" stop-opacity="1" style="stop-color:rgb(255,193,7)"/><stop offset="100%" stop-opacity="1" style="stop-color:rgb(222,68,55)"/></linearGradient><path d=" M 1507.138 641.716 L 1507.138 641.716 C 1495.01 650.722 1477.733 647.887 1468.761 635.712 L 1384.533 519.961 C 1375.561 507.785 1378.386 490.439 1390.513 481.433 L 1390.513 481.433 C 1402.641 472.426 1419.919 475.262 1428.89 487.437 L 1513.119 603.188 C 1521.924 615.53 1519.266 632.876 1507.138 641.716 Z " fill="url(#_lgradient_7)"/></g></g></g></svg>