<?xml version="1.0" standalone="no"?><!-- Generator: Gravit.io --><svg xmlns="http://www.w3.org/2000/svg" xmlns:xlink="http://www.w3.org/1999/xlink" style="isolation:isolate" viewBox="0 0 1568 448" width="1568" height="448"><defs><clipPath id="_clipPath_J73ecSL0FC4TF4NzstQPBDUnHc2ng5Ln"><rect width="1568" height="448"/></clipPath></defs><g clip-path="url(#_clipPath_J73ecSL0FC4TF4NzstQPBDUnHc2ng5Ln)"><linearGradient id="_lgradient_0" x1="0" y1="0.5" x2="1" y2="0.5" gradientTransform="matrix(200,0,0,32,0,320)" gradientUnits="userSpaceOnUse"><stop offset="0%" stop-opacity="1" style="stop-color:rgb(51,105,230)"/><stop offset="100%" stop-opacity="1" style="stop-color:rgb(0,174,255)"/></linearGradient><path d=" M 0 336 L 0 336 C 0 327.169 7.767 320 17.333 320 L 17.333 320 L 183.992 320 C 192.833 320 200 327.162 200 336 C 200 344.837 192.838 352 183.992 352 L 17.333 352 L 17.333 352 C 7.767 352 0 344.831 0 336 L 0 336 Z " fill-rule="evenodd" fill="url(#_lgradient_0)"/><g opacity="0.4"><linearGradient id="_lgradient_1" x1="0" y1="0.5" x2="1" y2="0.5" gradientTransform="matrix(322,0,0,32,0,384)" gradientUnits="userSpaceOnUse"><stop offset="0%" stop-opacity="1" style="stop-color:rgb(51,105,230)"/><stop offset="100%" stop-opacity="1" style="stop-color:rgb(0,174,255)"/></linearGradient><path d=" M 0 400 L 0 400 C 0 391.169 7.767 384 17.333 384 L 17.333 384 L 306.004 384 C 314.839 384 322 391.162 322 400 C 322 408.837 314.842 416 306.004 416 L 17.333 416 L 17.333 416 C 7.767 416 0 408.831 0 400 L 0 400 Z " fill-rule="evenodd" fill="url(#_lgradient_1)"/></g><g opacity="0.2"><linearGradient id="_lgradient_2" x1="0" y1="0.5" x2="1" y2="0.5" gradientTransform="matrix(120,0,0,32,0,416)" gradientUnits="userSpaceOnUse"><stop offset="0%" stop-opacity="1" style="stop-color:rgb(51,105,230)"/><stop offset="100%" stop-opacity="1" style="stop-color:rgb(0,174,255)"/></linearGradient><path d=" M 0 432 L 0 432 C 0 423.169 8.066 416 18 416 L 18 416 L 104.003 416 C 112.838 416 120 423.162 120 432 C 120 440.837 112.831 448 104.003 448 L 17.333 448 L 17.333 448 C 7.767 448 0 440.831 0 432 L 0 432 Z " fill-rule="evenodd" fill="url(#_lgradient_2)"/></g><g opacity="0.9"><linearGradient id="_lgradient_3" x1="0" y1="0.5" x2="1" y2="0.5" gradientTransform="matrix(326,0,0,32,0,64)" gradientUnits="userSpaceOnUse"><stop offset="0%" stop-opacity="1" style="stop-color:rgb(51,105,230)"/><stop offset="100%" stop-opacity="1" style="stop-color:rgb(0,174,255)"/></linearGradient><path d=" M 0 80 L 0 80 C 0 71.169 6.871 64 15.333 64 L 15.333 64 L 310 64 C 318.837 64 326 71.162 326 80 C 326 88.837 318.83 96 310 96 L 16 96 L 16 96 C 7.169 96 0 88.831 0 80 L 0 80 Z " fill-rule="evenodd" fill="url(#_lgradient_3)"/></g><g opacity="0.4"><linearGradient id="_lgradient_4" x1="0" y1="0.5" x2="1" y2="0.5" gradientTransform="matrix(226,0,0,32,0,32)" gradientUnits="userSpaceOnUse"><stop offset="0%" stop-opacity="1" style="stop-color:rgb(51,105,230)"/><stop offset="100%" stop-opacity="1" style="stop-color:rgb(0,174,255)"/></linearGradient><path d=" M 0 48 L 0 48 C 0 39.169 7.169 32 16 32 L 16 32 L 209.996 32 C 218.835 32 226 39.162 226 48 C 226 56.837 218.831 64 209.996 64 L 16 64 L 16 64 C 7.169 64 0 56.831 0 48 L 0 48 Z " fill-rule="evenodd" fill="url(#_lgradient_4)"/></g><g opacity="0.2"><linearGradient id="_lgradient_5" x1="0" y1="0.5" x2="1" y2="0.5" gradientTransform="matrix(100,0,0,32,0,0)" gradientUnits="userSpaceOnUse"><stop offset="0%" stop-opacity="1" style="stop-color:rgb(51,105,230)"/><stop offset="100%" stop-opacity="1" style="stop-color:rgb(0,174,255)"/></linearGradient><path d=" M 0 16 L 0 16 C 0 7.169 8.066 0 18 0 L 18 0 L 84.003 0 C 92.838 0 100 7.162 100 16 C 100 24.837 92.828 32 84.003 32 L 18 32 L 18 32 C 8.066 32 0 24.831 0 16 L 0 16 Z " fill-rule="evenodd" fill="url(#_lgradient_5)"/></g><linearGradient id="_lgradient_6" x1="0" y1="0.5" x2="1" y2="0.5" gradientTransform="matrix(1439,0,0,32,0,224)" gradientUnits="userSpaceOnUse"><stop offset="0%" stop-opacity="1" style="stop-color:rgb(51,105,230)"/><stop offset="100%" stop-opacity="1" style="stop-color:rgb(142,67,230)"/></linearGradient><path d=" M 0 240 L 0 240 C 0 231.169 8.066 224 18 224 L 18 224 L 1422.993 224 C 1431.834 224 1439 231.162 1439 240 C 1439 248.837 1431.832 256 1422.993 256 L 17.333 256 L 17.333 256 C 7.767 256 0 248.831 0 240 L 0 240 Z " fill-rule="evenodd" fill="url(#_lgradient_6)"/><g opacity="0.9"><linearGradient id="_lgradient_7" x1="0" y1="0.5" x2="0.9999999000249236" y2="0.5004471578500322" gradientTransform="matrix(1520,0,0,32,0,192)" gradientUnits="userSpaceOnUse"><stop offset="0%" stop-opacity="1" style="stop-color:rgb(145,63,230)"/><stop offset="34.63956234076783%" stop-opacity="1" style="stop-color:rgb(51,105,230)"/><stop offset="99.99956234076784%" stop-opacity="1" style="stop-color:rgb(0,174,255)"/></linearGradient><path d=" M 0 208 L 0 208 C 0 199.169 8.066 192 18 192 L 18 192 L 1504.006 192 C 1512.839 192 1520 199.162 1520 208 C 1520 216.837 1512.842 224 1504.006 224 L 18 224 L 18 224 C 8.066 224 0 216.831 0 208 L 0 208 Z " fill-rule="evenodd" fill="url(#_lgradient_7)"/></g><g opacity="0.9"><linearGradient id="_lgradient_8" x1="0" y1="0.5" x2="1" y2="0.5" gradientTransform="matrix(935,0,0,32,0,192)" gradientUnits="userSpaceOnUse"><stop offset="0%" stop-opacity="1" style="stop-color:rgb(51,105,230)"/><stop offset="100%" stop-opacity="1" style="stop-color:rgb(0,174,255)"/></linearGradient><path d=" M 0 208 L 0 208 C 0 199.169 8.066 192 18 192 L 18 192 L 918.993 192 C 927.833 192 935 199.162 935 208 C 935 216.837 927.846 224 918.993 224 L 17.333 224 L 17.333 224 C 7.767 224 0 216.831 0 208 L 0 208 Z " fill-rule="evenodd" fill="url(#_lgradient_8)"/></g><g opacity="0.9"><linearGradient id="_lgradient_9" x1="0" y1="0.5" x2="1" y2="0.5" gradientTransform="matrix(1358,0,0,32,0,160)" gradientUnits="userSpaceOnUse"><stop offset="0%" stop-opacity="1" style="stop-color:rgb(145,63,230)"/><stop offset="34.64%" stop-opacity="1" style="stop-color:rgb(51,105,230)"/><stop offset="100%" stop-opacity="1" style="stop-color:rgb(0,174,255)"/></linearGradient><path d=" M 0 176 L 0 176 C 0 167.169 7.169 160 16 160 L 16 160 L 1341.997 160 C 1350.835 160 1358 167.162 1358 176 C 1358 184.837 1350.836 192 1341.997 192 L 16 192 L 16 192 C 7.169 192 0 184.831 0 176 L 0 176 Z " fill-rule="evenodd" fill="url(#_lgradient_9)"/></g><g opacity="0.4"><linearGradient id="_lgradient_10" x1="0" y1="0.5" x2="1" y2="0.5" gradientTransform="matrix(1568,0,0,32,0,160)" gradientUnits="userSpaceOnUse"><stop offset="1.905999999999993%" stop-opacity="1" style="stop-color:rgb(145,63,230)"/><stop offset="35.8857616%" stop-opacity="1" style="stop-color:rgb(51,105,230)"/><stop offset="100%" stop-opacity="1" style="stop-color:rgb(0,175,255)"/></linearGradient><path d=" M 0 176 L 0 176 C 0 167.169 7.169 160 16 160 L 16 160 L 1552.002 160 C 1560.838 160 1568 167.162 1568 176 C 1568 184.837 1560.836 192 1552.002 192 L 16 192 L 16 192 C 7.169 192 0 184.831 0 176 L 0 176 Z " fill-rule="evenodd" fill="url(#_lgradient_10)"/></g><g opacity="0.2"><linearGradient id="_lgradient_11" x1="0" y1="0.5" x2="1" y2="0.5" gradientTransform="matrix(1439,0,0,32,0,128)" gradientUnits="userSpaceOnUse"><stop offset="2.166999999999992%" stop-opacity="1" style="stop-color:rgb(145,63,230)"/><stop offset="36.056351199999995%" stop-opacity="1" style="stop-color:rgb(51,105,230)"/><stop offset="100%" stop-opacity="1" style="stop-color:rgb(0,174,255)"/></linearGradient><path d=" M 0 144 L 0 144 C 0 135.169 6.871 128 15.333 128 L 15.333 128 L 1422.993 128 C 1431.834 128 1439 135.162 1439 144 C 1439 152.837 1431.832 160 1422.993 160 L 16 160 L 16 160 C 7.169 160 0 152.831 0 144 L 0 144 Z " fill-rule="evenodd" fill="url(#_lgradient_11)"/></g><g opacity="0.4"><linearGradient id="_lgradient_12" x1="0" y1="0.5" x2="1" y2="0.5" gradientTransform="matrix(949,0,0,32,0,96)" gradientUnits="userSpaceOnUse"><stop offset="0%" stop-opacity="1" style="stop-color:rgb(145,63,230)"/><stop offset="34.64%" stop-opacity="1" style="stop-color:rgb(51,105,230)"/><stop offset="100%" stop-opacity="1" style="stop-color:rgb(0,174,255)"/></linearGradient><path d=" M 0 112 L 0 112 C 0 103.169 8.066 96 18 96 L 18 96 L 933.001 96 C 941.837 96 949 103.162 949 112 C 949 120.837 941.84 128 933.001 128 L 18 128 L 18 128 C 8.066 128 0 120.831 0 112 L 0 112 Z " fill-rule="evenodd" fill="url(#_lgradient_12)"/></g><g opacity="0.2"><path d=" M 0 176 L 0 176 C 0 167.169 7.169 160 16 160 L 16 160 L 1175.995 160 C 1184.834 160 1192 167.162 1192 176 C 1192 184.837 1184.83 192 1175.995 192 L 17.333 192 L 17.333 192 C 7.767 192 0 184.831 0 176 L 0 176 Z " fill-rule="evenodd" fill="none"/></g><g opacity="0.75"><linearGradient id="_lgradient_13" x1="0" y1="0.5" x2="0.9999990016376775" y2="0.5014130547223141" gradientTransform="matrix(481,0,0,32,0,160)" gradientUnits="userSpaceOnUse"><stop offset="0%" stop-opacity="1" style="stop-color:rgb(145,63,230)"/><stop offset="34.63562948779986%" stop-opacity="1" style="stop-color:rgb(51,105,230)"/><stop offset="99.99562948779986%" stop-opacity="1" style="stop-color:rgb(0,174,255)"/></linearGradient><path d=" M 0 176 L 0 176 C 0 167.169 6.871 160 15.333 160 L 15.333 160 L 464.996 160 C 473.835 160 481 167.162 481 176 C 481 184.837 473.827 192 464.996 192 L 15.333 192 L 15.333 192 C 6.871 192 0 184.831 0 176 L 0 176 Z " fill-rule="evenodd" fill="url(#_lgradient_13)"/></g><g opacity="0.9"><linearGradient id="_lgradient_14" x1="0" y1="0.5" x2="1" y2="0.5" gradientTransform="matrix(553,0,0,32,0,96)" gradientUnits="userSpaceOnUse"><stop offset="0%" stop-opacity="1" style="stop-color:rgb(145,63,230)"/><stop offset="34.64%" stop-opacity="1" style="stop-color:rgb(51,105,230)"/><stop offset="100%" stop-opacity="1" style="stop-color:rgb(0,174,255)"/></linearGradient><path d=" M 0 112 L 0 112 C 0 103.169 8.066 96 18 96 L 18 96 L 537.009 96 C 545.841 96 553 103.162 553 112 C 553 120.837 545.831 128 537.009 128 L 17.333 128 L 17.333 128 C 7.767 128 0 120.831 0 112 L 0 112 Z " fill-rule="evenodd" fill="url(#_lgradient_14)"/></g><g opacity="0.9"><linearGradient id="_lgradient_15" x1="0" y1="0.5" x2="0.9999913911412388" y2="0.5041494148274168" gradientTransform="matrix(819,0,0,160,0,128)" gradientUnits="userSpaceOnUse"><stop offset="0%" stop-opacity="1" style="stop-color:rgb(145,63,230)"/><stop offset="34.602313302270545%" stop-opacity="1" style="stop-color:rgb(51,105,230)"/><stop offset="99.96231330227054%" stop-opacity="1" style="stop-color:rgb(0,174,255)"/></linearGradient><path d=" M 0 144 L 0 144 C 0 135.169 8.066 128 18 128 L 18 128 L 803.007 128 C 811.84 128 819 135.162 819 144 C 819 152.837 811.842 160 803.007 160 L 18 160 L 18 160 C 8.066 160 0 152.831 0 144 L 0 144 Z  M 0 272 L 0 272 C 0 263.169 8.066 256 18 256 L 18 256 L 703.995 256 C 712.834 256 720 263.162 720 272 C 720 280.837 712.845 288 703.995 288 L 17.333 288 L 17.333 288 C 7.767 288 0 280.831 0 272 L 0 272 Z " fill-rule="evenodd" fill="url(#_lgradient_15)"/></g><g opacity="0.2"><path d=" M 0 144 L 0 144 C 0 135.169 8.066 128 18 128 L 18 128 L 277.998 128 C 286.835 128 294 135.162 294 144 C 294 152.837 286.842 160 277.998 160 L 17.333 160 L 17.333 160 C 7.767 160 0 152.831 0 144 L 0 144 Z " fill-rule="evenodd" fill="none"/></g><g opacity="0.3"><linearGradient id="_lgradient_16" x1="0" y1="0.5" x2="1" y2="0.5" gradientTransform="matrix(240,0,0,32,0,256)" gradientUnits="userSpaceOnUse"><stop offset="14.764%" stop-opacity="0" style="stop-color:rgb(255,255,255)"/><stop offset="94.5%" stop-opacity="1" style="stop-color:rgb(255,255,255)"/></linearGradient><path d=" M 0 272 L 0 272 C 0 263.169 8.066 256 18 256 L 18 256 L 223.997 256 C 232.835 256 240 263.162 240 272 C 240 280.837 232.834 288 223.997 288 L 18 288 L 18 288 C 8.066 288 0 280.831 0 272 L 0 272 Z " fill-rule="evenodd" fill="url(#_lgradient_16)"/></g><g opacity="0.9"><linearGradient id="_lgradient_17" x1="0" y1="0.5" x2="1" y2="0.5" gradientTransform="matrix(400,0,0,32,0,288)" gradientUnits="userSpaceOnUse"><stop offset="0%" stop-opacity="1" style="stop-color:rgb(145,63,230)"/><stop offset="34.64%" stop-opacity="1" style="stop-color:rgb(51,105,230)"/><stop offset="100%" stop-opacity="1" style="stop-color:rgb(0,174,255)"/></linearGradient><path d=" M 0 304 L 0 304 C 0 295.169 8.066 288 18 288 L 18 288 L 383.995 288 C 392.834 288 400 295.162 400 304 C 400 312.837 392.845 320 383.995 320 L 18 320 L 18 320 C 8.066 320 0 312.831 0 304 L 0 304 Z " fill-rule="evenodd" fill="url(#_lgradient_17)"/></g><g opacity="0.4"><linearGradient id="_lgradient_18" x1="0" y1="0.5" x2="1" y2="0.5" gradientTransform="matrix(644,0,0,32,0,288)" gradientUnits="userSpaceOnUse"><stop offset="0%" stop-opacity="1" style="stop-color:rgb(145,63,230)"/><stop offset="34.64%" stop-opacity="1" style="stop-color:rgb(51,105,230)"/><stop offset="100%" stop-opacity="1" style="stop-color:rgb(0,174,255)"/></linearGradient><path d=" M 0 304 L 0 304 C 0 295.169 8.066 288 18 288 L 18 288 L 628.001 288 C 636.837 288 644 295.162 644 304 C 644 312.837 636.837 320 628.001 320 L 18 320 L 18 320 C 8.066 320 0 312.831 0 304 L 0 304 Z " fill-rule="evenodd" fill="url(#_lgradient_18)"/></g><g opacity="0.4"><linearGradient id="_lgradient_19" x1="0" y1="0.5" x2="0.99999981735037" y2="0.5006043998896066" gradientTransform="matrix(800,0,0,32,0,288)" gradientUnits="userSpaceOnUse"><stop offset="0.000018264961333613883%" stop-opacity="1" style="stop-color:rgb(145,63,230)"/><stop offset="34.64001826496133%" stop-opacity="1" style="stop-color:rgb(51,105,230)"/><stop offset="100%" stop-opacity="1" style="stop-color:rgb(0,174,255)"/></linearGradient><path d=" M 0 304 L 0 304 C 0 295.169 7.767 288 17.333 288 L 17.333 288 L 783.997 288 C 792.835 288 800 295.162 800 304 C 800 312.837 792.84 320 783.997 320 L 17.333 320 L 17.333 320 C 7.767 320 0 312.831 0 304 L 0 304 Z " fill-rule="evenodd" fill="url(#_lgradient_19)"/></g></g></svg>